<?xml version="1.0" encoding="UTF-8"?>
<svg version="1.1" xmlns="http://www.w3.org/2000/svg" width="384" height="240">
<path d="M0 0 C8.79631701 7.00883013 13.58993227 16.02520991 15.5 27.0625 C16.48911482 36.22695159 14.97553848 43.80410156 10.90234375 52.02734375 C9.95509112 54.09817743 9.26177209 55.73130855 9 58 C9.90377473 60.27086914 9.90377473 60.27086914 11.3125 62.5625 C16.41829287 72.26208422 17.25517178 82.51516262 14.09375 93.0078125 C9.5661554 104.96922798 2.42763382 113.21385629 -9 119 C-18.77946422 123.39526482 -30.54710621 123.60258206 -40.6328125 120.03125 C-51.95874193 115.09718173 -59.85720086 107.76610721 -65.03515625 96.46875 C-68.11953059 88.57674765 -69.70398727 79.68596498 -66.75 71.5625 C-63.88425047 67.36622391 -63.88425047 67.36622391 -61 66 C-57.14299393 65.33753712 -53.60823425 65.09912189 -50.1171875 67.0546875 C-47.95575462 68.8193356 -46.25469577 70.49060847 -45 73 C-44.845364 74.72676868 -44.7252657 76.45672296 -44.625 78.1875 C-44.21687299 83.13684983 -43.24728933 86.59531291 -41 91 C-40.566875 92.1446875 -40.566875 92.1446875 -40.125 93.3125 C-38.51604235 95.72593647 -36.71394464 96.13948097 -34 97 C-33.01 97.33 -32.02 97.66 -31 98 C-24.54010564 98.77722595 -19.28594418 97.9155142 -14 94 C-9.85549247 89.84520833 -8.20063248 85.91865824 -8 80 C-8.20882812 79.27167969 -8.41765625 78.54335937 -8.6328125 77.79296875 C-9.39919507 74.79049527 -9.65244668 73.06439474 -9 70 C-5.43981041 65.00124956 -0.61377794 60.99401672 4 57 C3.154375 55.989375 2.30875 54.97875 1.4375 53.9375 C0.89867187 53.29167969 0.35984375 52.64585938 -0.1953125 51.98046875 C-1.94438397 49.96585684 -1.94438397 49.96585684 -3.9921875 48.36328125 C-6.03796717 46.66668084 -7.57520967 45.25081907 -9 43 C-9.1644858 40.11284139 -8.81257312 37.56295623 -8.35546875 34.7109375 C-7.63641253 29.22714608 -9.13680371 25.3071258 -12.1875 20.6875 C-16.30287727 16.75502839 -20.32173033 14.88859472 -26 14.625 C-30.74056727 14.84506502 -34.91032623 16.07617335 -38.4765625 19.359375 C-42.62221005 24.06262426 -44.14623081 28.26803804 -44.3125 34.4375 C-44.73907197 39.99041928 -45.8360565 42.3092319 -50 46 C-52.96620416 47.74929989 -54.55841102 48.01839954 -58 47.875 C-62.31353364 46.61688602 -64.94256098 44.71204413 -67.3125 40.875 C-69.83349307 30.33266534 -67.31476534 19.35794224 -61.8125 10.1875 C-55.32960324 0.76153087 -46.65424456 -5.47967598 -35.5 -8.3125 C-22.43297001 -10.69665986 -10.71821517 -7.82911225 0 0 Z " fill="#31D5C7" transform="translate(194,21)"/>
<path d="M0 0 C5.75 -0.125 5.75 -0.125 8 1 C8 1.66 8 2.32 8 3 C9.32 3.66 10.64 4.32 12 5 C12 5.66 12 6.32 12 7 C13.32 7.66 14.64 8.32 16 9 C16 9.66 16 10.32 16 11 C16.556875 11.226875 17.11375 11.45375 17.6875 11.6875 C20.66159588 13.37550036 22.72008865 15.46676517 25 18 C25 18.66 25 19.32 25 20 C26.32 20.66 27.64 21.32 29 22 C29 22.66 29 23.32 29 24 C30.32 24.66 31.64 25.32 33 26 C33 26.66 33 27.32 33 28 C34.32 28.66 35.64 29.32 37 30 C37 30.66 37 31.32 37 32 C37.556875 32.226875 38.11375 32.45375 38.6875 32.6875 C41.66159588 34.37550036 43.72008865 36.46676517 46 39 C46 39.66 46 40.32 46 41 C47.32 41.66 48.64 42.32 50 43 C50 43.66 50 44.32 50 45 C51.32 45.33 52.64 45.66 54 46 C54.01030746 45.43845718 54.02061493 44.87691437 54.03123474 44.2983551 C54.13907685 38.47506534 54.25369208 32.65193736 54.37231445 26.82885742 C54.41573507 24.65311047 54.45740471 22.47732786 54.49731445 20.30151367 C54.55484502 17.18136832 54.61858823 14.06140367 54.68359375 10.94140625 C54.70030624 9.96224747 54.71701874 8.98308868 54.73423767 7.97425842 C54.75418289 7.07340012 54.77412811 6.17254181 54.79467773 5.24438477 C54.81022202 4.44718521 54.8257663 3.64998566 54.84178162 2.82862854 C55 1 55 1 56 0 C59.13742768 -0.27686887 62.28929277 -0.23173629 65.4375 -0.25 C66.32244141 -0.270625 67.20738281 -0.29125 68.11914062 -0.3125 C69.38854492 -0.32023437 69.38854492 -0.32023437 70.68359375 -0.328125 C71.46275146 -0.3374707 72.24190918 -0.34681641 73.04467773 -0.35644531 C73.68993408 -0.23881836 74.33519043 -0.12119141 75 0 C77.56588767 3.84883151 77.28090341 7.00165029 77.25878906 11.46289062 C77.2622937 12.32657761 77.26579834 13.19026459 77.26940918 14.0801239 C77.2782214 16.93891404 77.27237913 19.79745729 77.265625 22.65625 C77.2669718 24.64017789 77.26891245 26.62410547 77.27142334 28.60803223 C77.27437391 32.76752868 77.27007908 36.92693929 77.26074219 41.08642578 C77.24934772 46.42320845 77.25590754 51.75978996 77.26788712 57.09656525 C77.27510749 61.19372071 77.27281696 65.29082834 77.26763153 69.38798523 C77.26629553 71.35601322 77.26794103 73.32404553 77.27259064 75.29206848 C77.27765875 78.04053282 77.26994159 80.7886695 77.25878906 83.53710938 C77.26283752 84.35382614 77.26688599 85.17054291 77.27105713 86.01200867 C77.2420115 89.86773835 77.18949497 91.71575754 75 95 C72.81109619 95.58712769 72.81109619 95.58712769 70 95 C67.40488825 93.14020546 65.24657551 90.8875316 63.02246094 88.60595703 C62.34058716 87.92641968 61.65871338 87.24688232 60.95617676 86.54675293 C58.70338394 84.29557618 56.46893606 82.02707595 54.234375 79.7578125 C52.67551984 78.19216987 51.11563008 76.62755674 49.55474854 75.06393433 C46.28575868 71.78426047 43.02495658 68.49673959 39.77050781 65.20263672 C35.59185038 60.97306971 31.40038786 56.75650361 27.2036705 52.54486275 C23.20998405 48.53640659 19.22155716 44.52273727 15.234375 40.5078125 C14.4695153 39.73804203 13.70465561 38.96827156 12.91661835 38.17517471 C10.76153954 36.00386841 8.61010194 33.8290268 6.45996094 31.65283203 C5.81685974 31.00547089 5.17375854 30.35810974 4.51116943 29.69113159 C0.53327346 25.65456743 -1.12541162 23.901689 -1.1328125 18.28125 C-1.13410156 17.34925781 -1.13539062 16.41726562 -1.13671875 15.45703125 C-1.13285156 14.48121094 -1.12898438 13.50539063 -1.125 12.5 C-1.12886719 11.52417969 -1.13273437 10.54835938 -1.13671875 9.54296875 C-1.13542969 8.61097656 -1.13414063 7.67898437 -1.1328125 6.71875 C-1.13168457 5.86216797 -1.13055664 5.00558594 -1.12939453 4.12304688 C-1 2 -1 2 0 0 Z " fill="#1F1F26" transform="translate(39,30)"/>
<path d="M0 0 C4.53633977 0.13139318 8.07668396 0.23622245 11.48364258 3.45043945 C13.70953123 6.1404866 15.45616971 9.08220655 17.12573242 12.1418457 C18.7695767 15.03212136 20.77159198 17.59689452 22.77270508 20.2512207 C23.89958163 21.81236787 25.02534953 23.37432009 26.14770508 24.9387207 C28.48533599 24.93661177 28.48533599 24.93661177 31.14770508 23.9387207 C32.98299739 21.79066154 34.48656403 19.78138121 36.02270508 17.4387207 C36.46630371 16.80885254 36.90990234 16.17898437 37.36694336 15.5300293 C39.3237274 12.74529302 41.09394734 10.04371628 42.64770508 7.0090332 C44.28666154 4.09429813 45.2613719 2.68124383 48.14770508 0.9387207 C54.36917332 -0.2283219 64.50271792 -1.49062549 69.98657227 2.16430664 C71.14770508 3.9387207 71.14770508 3.9387207 71.02001953 6.35961914 C70.0847856 9.12474963 68.978127 10.90464907 67.19067383 13.2043457 C66.57764404 14.00412842 65.96461426 14.80391113 65.33300781 15.62792969 C64.34409546 16.89552124 64.34409546 16.89552124 63.33520508 18.1887207 C61.97444469 19.97542685 60.61509304 21.76320669 59.25708008 23.55200195 C58.57194336 24.44999512 57.88680664 25.34798828 57.1809082 26.27319336 C54.11942381 30.28679646 51.07351203 34.30776483 48.08520508 38.3762207 C47.55499756 39.06683594 47.02479004 39.75745117 46.47851562 40.46899414 C43.76358859 44.08063017 43.76358859 44.08063017 43.46411133 48.4152832 C45.87578777 52.0300001 48.45469298 55.46686738 51.14770508 58.8762207 C57.02267089 66.42904799 62.63600964 74.11754725 68.14770508 81.9387207 C68.60733643 82.55030029 69.06696777 83.16187988 69.54052734 83.79199219 C73.15425705 88.64388213 73.15425705 88.64388213 73.08520508 91.7512207 C72.14770508 93.9387207 72.14770508 93.9387207 70.14770508 95.9387207 C67.11251223 96.51635945 64.04374304 96.49421947 60.96020508 96.5637207 C60.12166992 96.62172852 59.28313477 96.67973633 58.41918945 96.73950195 C54.71261799 96.81473291 52.17119375 96.73873133 49.18652344 94.40576172 C47.34083669 92.3379725 45.73528641 90.20996934 44.14770508 87.9387207 C43.64198975 87.26583008 43.13627441 86.59293945 42.61523438 85.8996582 C41.07043374 83.83155792 39.57466365 81.73447214 38.08520508 79.6262207 C36.95452298 78.04359735 35.82298255 76.46158693 34.69067383 74.88012695 C34.1110791 74.06946777 33.53148437 73.25880859 32.93432617 72.42358398 C29.95478082 68.27958116 26.92821135 64.1705353 23.89770508 60.0637207 C23.30401123 59.25894287 22.71031738 58.45416504 22.09863281 57.625 C18.96524272 53.38339036 15.81743236 49.15328402 12.64770508 44.9387207 C6.98044005 37.39998942 1.36824551 29.8214269 -4.19262695 22.20385742 C-5.71274353 20.12918228 -7.24809171 18.06670107 -8.78588867 16.00512695 C-9.62163635 14.85880162 -10.45635585 13.71172561 -11.28979492 12.5637207 C-12.01038086 11.58661133 -12.7309668 10.60950195 -13.47338867 9.6027832 C-14.85229492 6.9387207 -14.85229492 6.9387207 -14.63745117 4.1496582 C-12.67456352 -1.37767718 -5.03950629 0.11016929 0 0 Z " fill="#2C2C33" transform="translate(229.852294921875,30.061279296875)"/>
<path d="M0 0 C4.60845433 1.41152988 4.60845433 1.41152988 6.328125 3.99609375 C10.55030723 15.17772042 11.28771325 25.88759301 6.73828125 37.11328125 C1.2186634 48.74649157 -5.58056334 55.73487908 -17.44140625 61.10546875 C-28.75660745 65.07604182 -40.87798027 63.87472501 -51.5546875 58.78125 C-62.10286067 53.01021301 -69.02331936 44.10147378 -72.74609375 32.71875 C-74.45405255 26.02826311 -75.13393183 19.11831253 -72.75 12.5625 C-69.88425047 8.36622391 -69.88425047 8.36622391 -67 7 C-63.14299393 6.33753712 -59.60823425 6.09912189 -56.1171875 8.0546875 C-53.95575462 9.8193356 -52.25469577 11.49060847 -51 14 C-50.845364 15.72676868 -50.7252657 17.45672296 -50.625 19.1875 C-50.21687299 24.13684983 -49.24728933 27.59531291 -47 32 C-46.71125 32.763125 -46.4225 33.52625 -46.125 34.3125 C-44.51604235 36.72593647 -42.71394464 37.13948097 -40 38 C-39.01 38.33 -38.02 38.66 -37 39 C-30.50910607 39.78095568 -25.37076239 38.81190165 -20 35 C-17.67722584 32.3908613 -17.67722584 32.3908613 -16 30 C-15.34 30 -14.68 30 -14 30 C-13.03178853 26.1824805 -13.21866671 23.36810635 -13.75 19.5 C-13.86218114 14.99031826 -13.01667501 12.64925058 -10.109375 9.328125 C-6.9048334 6.02561242 -3.50205497 2.98251934 0 0 Z " fill="#21BADD" transform="translate(200,80)"/>
<path d="M0 0 C1.68597202 0.96709676 3.34677685 1.97792809 5 3 C5.56928223 3.34998047 6.13856445 3.69996094 6.72509766 4.06054688 C11.91334517 7.48515101 16.33276522 11.29549786 19 17 C20.00025092 22.43718702 20.12398556 27.73433079 20 33.25 C19.98417877 33.95838013 19.96835754 34.66676025 19.95205688 35.39660645 C19.58729614 47.41270386 19.58729614 47.41270386 17 50 C15.15234375 50.25878906 15.15234375 50.25878906 12.9375 50.265625 C11.74253906 50.26949219 11.74253906 50.26949219 10.5234375 50.2734375 C9.69070312 50.26570313 8.85796875 50.25796875 8 50.25 C6.75089844 50.26160156 6.75089844 50.26160156 5.4765625 50.2734375 C4.67992187 50.27085938 3.88328125 50.26828125 3.0625 50.265625 C2.33160156 50.26336914 1.60070313 50.26111328 0.84765625 50.25878906 C-1 50 -1 50 -3 48 C-3.26069641 46.07130432 -3.26069641 46.07130432 -3.2746582 43.68969727 C-3.28895622 42.35304771 -3.28895622 42.35304771 -3.30354309 40.98939514 C-3.30263168 40.02480881 -3.30172028 39.06022247 -3.30078125 38.06640625 C-3.30506638 37.07752914 -3.3093515 36.08865204 -3.31376648 35.06980896 C-3.31951637 32.9758277 -3.32000521 30.88182647 -3.31567383 28.7878418 C-3.31251616 25.5789184 -3.33595718 22.37091853 -3.36132812 19.16210938 C-3.36360122 17.1302095 -3.36430457 15.09830714 -3.36328125 13.06640625 C-3.372491 12.10384415 -3.38170074 11.14128204 -3.39118958 10.14955139 C-3.38496078 9.25529953 -3.37873199 8.36104767 -3.37231445 7.43969727 C-3.37294388 6.65297134 -3.3735733 5.86624542 -3.3742218 5.05567932 C-2.91116093 2.51198826 -1.95921522 1.62194654 0 0 Z " fill="#191921" transform="translate(41,75)"/>
<path d="M0 0 C4.19370355 1.33622907 5.86258992 3.73577813 8.1875 7.265625 C8.60644531 7.83925781 9.02539062 8.41289063 9.45703125 9.00390625 C11.25824222 11.64849359 12.32156227 13.2700506 11.7421875 16.4921875 C9.70642685 19.79646232 7.58455516 22.99419293 5.3125 26.140625 C4.87808594 26.76066406 4.44367188 27.38070312 3.99609375 28.01953125 C-0.61514908 34.45865412 -0.61514908 34.45865412 -3.8125 36.015625 C-6.8440077 36.43405204 -9.81920571 36.43431388 -12.875 36.390625 C-14.09799805 36.40802734 -14.09799805 36.40802734 -15.34570312 36.42578125 C-16.13009766 36.42191406 -16.91449219 36.41804688 -17.72265625 36.4140625 C-18.43558838 36.41067871 -19.14852051 36.40729492 -19.88305664 36.40380859 C-22.38104778 35.9012392 -23.29369017 35.03314405 -24.8125 33.015625 C-24.75496167 27.85155954 -22.48812226 24.7213375 -19.3125 20.890625 C-18.40537353 19.75721135 -17.49914456 18.62307887 -16.59375 17.48828125 C-16.13226563 16.91609863 -15.67078125 16.34391602 -15.1953125 15.75439453 C-13.00101348 12.99524947 -10.90865749 10.16210907 -8.8125 7.328125 C-3.39104293 0.01883913 -3.39104293 0.01883913 0 0 Z " fill="#313137" transform="translate(237.8125,89.984375)"/>
<path d="M0 0 C3.58968499 1.32951296 5.35941599 3.50898051 7.6953125 6.46875 C9.54725406 8.6422862 11.71556211 10.302989 14 12 C11.78825873 17.01027103 8.23344762 20.59414364 4 24 C1 25 1 25 -2 24 C-4.22172376 22.06714281 -6.20514356 20.04276845 -8.16796875 17.84765625 C-9.95968688 15.76287797 -9.95968688 15.76287797 -13 15 C-13.4125 15.515625 -13.825 16.03125 -14.25 16.5625 C-16 18 -16 18 -18 17.875 C-20.20700414 16.90943569 -21.42932829 15.80627247 -23 14 C-21.84826645 11.53199953 -20.95216435 9.95216435 -19 8 C-17.125 8.3125 -17.125 8.3125 -15 9 C-11.91625179 9.96367132 -10.09097736 9.99352844 -7 9 C-6.95875 8.443125 -6.9175 7.88625 -6.875 7.3125 C-5.53069626 3.75969726 -2.99025811 2.29041047 0 0 Z " fill="#B2F6ED" transform="translate(182,65)"/>
<path d="M0 0 C0.88494141 -0.020625 1.76988281 -0.04125 2.68164062 -0.0625 C3.95104492 -0.07023437 3.95104492 -0.07023437 5.24609375 -0.078125 C6.02525146 -0.0874707 6.80440918 -0.09681641 7.60717773 -0.10644531 C8.25243408 0.01118164 8.89769043 0.12880859 9.5625 0.25 C12.12838767 4.09883151 11.84340341 7.25165029 11.82128906 11.71289062 C11.8247937 12.57657761 11.82829834 13.44026459 11.83190918 14.3301239 C11.8407214 17.18891404 11.83487913 20.04745729 11.828125 22.90625 C11.8294718 24.89017789 11.83141245 26.87410547 11.83392334 28.85803223 C11.83687391 33.01752868 11.83257908 37.17693929 11.82324219 41.33642578 C11.81184772 46.67320845 11.81840754 52.00978996 11.83038712 57.34656525 C11.83760749 61.44372071 11.83531696 65.54082834 11.83013153 69.63798523 C11.82879553 71.60601322 11.83044103 73.57404553 11.83509064 75.54206848 C11.84015875 78.29053282 11.83244159 81.0386695 11.82128906 83.78710938 C11.82533752 84.60382614 11.82938599 85.42054291 11.83355713 86.26200867 C11.8045115 90.11773835 11.75199497 91.96575754 9.5625 95.25 C6.9375 95.4375 6.9375 95.4375 4.5625 95.25 C4.0675 94.26 4.0675 94.26 3.5625 93.25 C5.2125 93.25 6.8625 93.25 8.5625 93.25 C8.5625 63.22 8.5625 33.19 8.5625 2.25 C2.6225 2.25 -3.3175 2.25 -9.4375 2.25 C-9.4375 17.1 -9.4375 31.95 -9.4375 47.25 C-11.4175 47.745 -11.4175 47.745 -13.4375 48.25 C-14.0975 47.26 -14.7575 46.27 -15.4375 45.25 C-14.1175 45.58 -12.7975 45.91 -11.4375 46.25 C-11.42719254 45.68845718 -11.41688507 45.12691437 -11.40626526 44.5483551 C-11.29842315 38.72506534 -11.18380792 32.90193736 -11.06518555 27.07885742 C-11.02176493 24.90311047 -10.98009529 22.72732786 -10.94018555 20.55151367 C-10.88265498 17.43136832 -10.81891177 14.31140367 -10.75390625 11.19140625 C-10.73719376 10.21224747 -10.72048126 9.23308868 -10.70326233 8.22425842 C-10.6733445 6.87297096 -10.6733445 6.87297096 -10.64282227 5.49438477 C-10.62727798 4.69718521 -10.6117337 3.89998566 -10.59571838 3.07862854 C-10.18585226 -1.65844987 -3.62811034 0.02104778 0 0 Z " fill="#86878A" transform="translate(104.4375,29.75)"/>
<path d="M0 0 C1.65 0.99 3.3 1.98 5 3 C3 4 3 4 -1 3 C-1 17.85 -1 32.7 -1 48 C4.94 48 10.88 48 17 48 C17 37.44 17 26.88 17 16 C17.66 16.33 18.32 16.66 19 17 C19.04938149 21.37823917 19.0857104 25.75633146 19.10986328 30.13476562 C19.11993043 31.6247032 19.13358518 33.11462097 19.15087891 34.60449219 C19.17509653 36.74419028 19.18647564 38.88362753 19.1953125 41.0234375 C19.20578613 42.31169434 19.21625977 43.59995117 19.22705078 44.92724609 C19 48 19 48 17 50 C15.15234375 50.25878906 15.15234375 50.25878906 12.9375 50.265625 C11.74253906 50.26949219 11.74253906 50.26949219 10.5234375 50.2734375 C9.69070312 50.26570313 8.85796875 50.25796875 8 50.25 C6.75089844 50.26160156 6.75089844 50.26160156 5.4765625 50.2734375 C4.67992187 50.27085938 3.88328125 50.26828125 3.0625 50.265625 C2.33160156 50.26336914 1.60070313 50.26111328 0.84765625 50.25878906 C-1 50 -1 50 -3 48 C-3.26069641 46.07130432 -3.26069641 46.07130432 -3.2746582 43.68969727 C-3.28895622 42.35304771 -3.28895622 42.35304771 -3.30354309 40.98939514 C-3.30263168 40.02480881 -3.30172028 39.06022247 -3.30078125 38.06640625 C-3.30506638 37.07752914 -3.3093515 36.08865204 -3.31376648 35.06980896 C-3.31951637 32.9758277 -3.32000521 30.88182647 -3.31567383 28.7878418 C-3.31251616 25.5789184 -3.33595718 22.37091853 -3.36132812 19.16210938 C-3.36360122 17.1302095 -3.36430457 15.09830714 -3.36328125 13.06640625 C-3.372491 12.10384415 -3.38170074 11.14128204 -3.39118958 10.14955139 C-3.38496078 9.25529953 -3.37873199 8.36104767 -3.37231445 7.43969727 C-3.37294388 6.65297134 -3.3735733 5.86624542 -3.3742218 5.05567932 C-2.91116093 2.51198826 -1.95921522 1.62194654 0 0 Z " fill="#A2A1A4" transform="translate(41,75)"/>
<path d="M0 0 C3.58968499 1.32951296 5.35941599 3.50898051 7.6953125 6.46875 C9.54725406 8.6422862 11.71556211 10.302989 14 12 C12.60807296 15.13010458 10.97357774 17.32336692 8.5625 19.75 C7.96566406 20.36359375 7.36882812 20.9771875 6.75390625 21.609375 C5 23 5 23 2 23 C2 20.03 2 17.06 2 14 C2.99 13.67 3.98 13.34 5 13 C5.33 12.01 5.66 11.02 6 10 C4.783125 10.20625 3.56625 10.4125 2.3125 10.625 C-1.34806773 11.09963844 -3.67611512 10.76581384 -7 9 C-6.82374165 6.62051228 -6.30280227 5.29774151 -4.59765625 3.62109375 C-3.09350908 2.37884514 -1.54870149 1.18623944 0 0 Z " fill="#5BF3DB" transform="translate(182,65)"/>
<path d="M0 0 C1 3 1 3 0.1875 4.8671875 C-0.204375 5.52976562 -0.59625 6.19234375 -1 6.875 C-2.54279966 9.73868979 -3.02777026 10.66675685 -2.75 14 C-2.5025 14.66 -2.255 15.32 -2 16 C-2.53109375 15.72800781 -3.0621875 15.45601562 -3.609375 15.17578125 C-6.2837612 14.72634209 -6.2837612 14.72634209 -9.015625 17.10546875 C-10.11552954 18.10946014 -11.19293018 19.13850425 -12.25 20.1875 C-12.7963208 20.72906738 -13.3426416 21.27063477 -13.90551758 21.82861328 C-17.36630478 25.56274822 -18.78669595 28.10438828 -18.6875 33.375 C-18.47808888 35.25230907 -18.25127877 37.12783512 -18 39 C-18.5 42.75 -18.5 42.75 -19 45 C-19.66 44.67 -20.32 44.34 -21 44 C-20.814375 42.72125 -20.62875 41.4425 -20.4375 40.125 C-19.94449132 36.40133442 -20.28827084 33.84910914 -21.25 30.25 C-21.66857206 27.33379465 -21.50585449 25.70662243 -19.77587891 23.29003906 C-16.16032081 19.192333 -12.12681132 15.57246353 -8 12 C-8.66 10.68 -9.32 9.36 -10 8 C-8.35 8 -6.7 8 -5 8 C-4.01 6.02 -3.02 4.04 -2 2 C-1.34 2 -0.68 2 0 2 C0 1.34 0 0.68 0 0 Z " fill="#8ADDE6" transform="translate(206,66)"/>
<path d="M0 0 C3.0717718 1.71077974 5.40485654 3.80971307 7 7 C7.154636 8.72676868 7.2747343 10.45672296 7.375 12.1875 C7.78312701 17.13684983 8.75271067 20.59531291 11 25 C11.391875 25.804375 11.78375 26.60875 12.1875 27.4375 C12.455625 27.953125 12.72375 28.46875 13 29 C9.22210095 27.36631393 8.09378184 26.19091303 6.25 22.4375 C5.1618923 19.19709137 4.81807414 16.21670197 4.625 12.8125 C4.33088464 9.14171408 4.03713502 8.05461032 1.875 4.875 C-1.79152461 2.4837883 -3.68890473 2.394934 -8 3 C-11.35161246 4.38214122 -11.35161246 4.38214122 -14 6 C-11.20231472 -0.45619681 -6.45902454 -1.11134835 0 0 Z " fill="#6BE6CE" transform="translate(142,87)"/>
<path d="M0 0 C3.39305036 0.53980347 6.66203244 1.16550811 10 2 C10 5.63 10 9.26 10 13 C6.34862372 11.17431186 4.79869856 10.01452869 2.1875 7.0625 C1.56230469 6.37285156 0.93710938 5.68320313 0.29296875 4.97265625 C-0.13371094 4.32167969 -0.56039062 3.67070313 -1 3 C-0.67 2.01 -0.34 1.02 0 0 Z " fill="#4EF3D7" transform="translate(172,76)"/>
<path d="M0 0 C0.33 0 0.66 0 1 0 C1.12117187 1.09957031 1.24234375 2.19914062 1.3671875 3.33203125 C2.29956985 11.61747723 3.33962141 19.82175226 5 28 C5.99 28.33 6.98 28.66 8 29 C9.01847486 30.99065541 10.01517978 32.99248185 11 35 C12.5767994 37.09766406 14.26301221 39.02828414 16 41 C8.13019827 37.4797446 4.13462822 29.68871073 1 22 C-1.28500685 15.06210357 -2.33949926 7.01849779 0 0 Z " fill="#8AEBD7" transform="translate(127,93)"/>
<path d="M0 0 C1.65 0 3.3 0 5 0 C5.9375 2.0625 5.9375 2.0625 6 5 C4.00374332 7.721657 1.72781516 10.01144567 -1 12 C-1.99 12 -2.98 12 -4 12 C-4 9.03 -4 6.06 -4 3 C-3.01 2.67 -2.02 2.34 -1 2 C-0.67 1.34 -0.34 0.68 0 0 Z " fill="#3CF1D3" transform="translate(188,76)"/>
<path d="M0 0 C0.66 0.66 1.32 1.32 2 2 C0.79472656 1.83628906 -0.41054687 1.67257813 -1.65234375 1.50390625 C-7.95138624 0.80401264 -14.23255417 0.89196082 -20.5625 0.9375 C-22.36170898 0.94426758 -22.36170898 0.94426758 -24.19726562 0.95117188 C-27.13156359 0.96286231 -30.06575449 0.97924862 -33 1 C-23.41665355 -5.38889763 -10.28091754 -3.89104171 0 0 Z " fill="#87EDD3" transform="translate(184,15)"/>
<path d="M0 0 C4.31909658 6.47864487 4.44040045 14.71820475 3.55859375 22.2734375 C2.63859732 26.76404942 0.93174674 30.85797559 -1 35 C-2.07422302 31.77733094 -1.94986899 31.16870388 -1.0703125 28.06640625 C0.30957068 22.34394954 0.22108376 16.79491359 0.125 10.9375 C0.11597656 9.88111328 0.10695312 8.82472656 0.09765625 7.73632812 C0.0743167 5.15730747 0.04157775 2.5787801 0 0 Z " fill="#89CFF5" transform="translate(206,86)"/>
<path d="M0 0 C5.75 -0.125 5.75 -0.125 8 1 C7.67 1.66 7.34 2.32 7 3 C4.03 2.505 4.03 2.505 1 2 C1.1415547 5.04192013 1.28809901 8.08346347 1.4375 11.125 C1.47681641 11.9809375 1.51613281 12.836875 1.55664062 13.71875 C1.78156402 18.21721792 2.13540883 22.56806207 3 27 C1.01953125 25.6640625 1.01953125 25.6640625 -1 23 C-1.54190428 19.45201739 -1.42076614 15.95500048 -1.3125 12.375 C-1.30283203 11.40820312 -1.29316406 10.44140625 -1.28320312 9.4453125 C-1.169051 2.338102 -1.169051 2.338102 0 0 Z " fill="#949296" transform="translate(39,30)"/>
<path d="M0 0 C0.763125 0.309375 1.52625 0.61875 2.3125 0.9375 C9.86768054 3.92443184 16.37369735 3.59618814 24 1 C24 1.66 24 2.32 24 3 C18.39720718 6.73519522 12.58872482 6.70659027 6 6 C3.2116771 4.91988174 2.27822449 4.47298163 0.75 1.875 C0.5025 1.25625 0.255 0.6375 0 0 Z " fill="#6AD1E5" transform="translate(155,116)"/>
<path d="M0 0 C0.66 0.33 1.32 0.66 2 1 C-1.95825209 5.82485166 -5.59160025 9.83410746 -11 13 C-9.66342976 10.09663689 -8.15277429 7.7897189 -6.0625 5.375 C-5.55847656 4.78460937 -5.05445313 4.19421875 -4.53515625 3.5859375 C-3 2 -3 2 0 0 Z " fill="#85EFD1" transform="translate(144,19)"/>
<path d="M0 0 C2.625 1.4375 2.625 1.4375 5 3 C3 4 3 4 -1 3 C-1 10.92 -1 18.84 -1 27 C-1.33 27 -1.66 27 -2 27 C-2 18.42 -2 9.84 -2 1 C-1.34 0.67 -0.68 0.34 0 0 Z " fill="#6B6B6F" transform="translate(41,75)"/>
<path d="M0 0 C0.86625 0.309375 1.7325 0.61875 2.625 0.9375 C2.625 1.9275 2.625 2.9175 2.625 3.9375 C2.05265625 3.70160156 1.4803125 3.46570313 0.890625 3.22265625 C-1.48480702 2.6721044 -1.48480702 2.6721044 -3.515625 4.37109375 C-4.55976563 5.36302734 -4.55976563 5.36302734 -5.625 6.375 C-6.33140625 7.03371094 -7.0378125 7.69242187 -7.765625 8.37109375 C-8.56226563 9.14646484 -8.56226563 9.14646484 -9.375 9.9375 C-9.375 5.84775158 -7.7388986 4.31060627 -5.109375 1.32421875 C-3.375 -0.0625 -3.375 -0.0625 0 0 Z " fill="#838386" transform="translate(238.375,90.0625)"/>
<path d="M0 0 C3 3.75 3 3.75 3 6 C3.99 6.33 4.98 6.66 6 7 C7.01847486 8.99065541 8.01517978 10.99248185 9 13 C10.5767994 15.09766406 12.26301221 17.02828414 14 19 C7.17437971 15.98437035 3.24130972 9.48261945 0 3 C0 2.01 0 1.02 0 0 Z " fill="#AAEBE7" transform="translate(129,115)"/>
<path d="M0 0 C0.33 0 0.66 0 1 0 C1.03738281 0.71285156 1.07476562 1.42570312 1.11328125 2.16015625 C1.52302166 8.12951169 2.28038349 12.66955163 5 18 C5.391875 18.804375 5.78375 19.60875 6.1875 20.4375 C6.455625 20.953125 6.72375 21.46875 7 22 C3.36476934 20.0867207 1.38678887 18.90355387 0 15 C-0.13958857 12.37573495 -0.18931369 9.86707253 -0.125 7.25 C-0.11597656 6.55261719 -0.10695312 5.85523437 -0.09765625 5.13671875 C-0.07419888 3.42433042 -0.03833104 1.71211996 0 0 Z " fill="#ACEDE6" transform="translate(148,94)"/>
<path d="M0 0 C3 1 3 1 4 3 C6.8159849 3.46898963 6.8159849 3.46898963 10.0625 3.625 C11.71958984 3.73714844 11.71958984 3.73714844 13.41015625 3.8515625 C14.26480469 3.90054688 15.11945313 3.94953125 16 4 C13.33946492 6.66053508 11.72944805 6.78483954 8 7 C4.57053453 5.74692608 2.58668727 4.9333661 0.625 1.8125 C0.41875 1.214375 0.2125 0.61625 0 0 Z " fill="#94EADE" transform="translate(128,62)"/>
<path d="M0 0 C1.32 0.33 2.64 0.66 4 1 C4 2.32 4 3.64 4 5 C3.01 5.66 2.02 6.32 1 7 C0.01 6.01 -0.98 5.02 -2 4 C-1.34 2.68 -0.68 1.36 0 0 Z " fill="#1DF2CC" transform="translate(163,75)"/>
<path d="M0 0 C1 3 1 3 -0.1875 6.0625 C-2.74753601 10.21152388 -2.74753601 10.21152388 -6 11 C-8.25 10.125 -8.25 10.125 -10 9 C-7 8 -7 8 -5 8 C-4.01 6.02 -3.02 4.04 -2 2 C-1.34 2 -0.68 2 0 2 C0 1.34 0 0.68 0 0 Z " fill="#6EC3F9" transform="translate(206,66)"/>
<path d="M0 0 C1.21236328 0.02707031 1.21236328 0.02707031 2.44921875 0.0546875 C3.37154297 0.08949219 3.37154297 0.08949219 4.3125 0.125 C4.3125 0.785 4.3125 1.445 4.3125 2.125 C3.55324219 2.24617188 2.79398438 2.36734375 2.01171875 2.4921875 C0.52091797 2.74355469 0.52091797 2.74355469 -1 3 C-1.98613281 3.16242188 -2.97226563 3.32484375 -3.98828125 3.4921875 C-6.88809827 4.00585454 -6.88809827 4.00585454 -9.6875 6.125 C-7.58496928 1.27300604 -5.24222142 -0.15194845 0 0 Z " fill="#97EFD9" transform="translate(137.6875,86.875)"/>
<path d="M0 0 C4.9723422 1.49170266 9.41845739 3.60457417 14 6 C11.3921814 6.98464547 10.31037786 7.1236295 7.67578125 6.07421875 C6.89589844 5.61660156 6.11601562 5.15898437 5.3125 4.6875 C4.52488281 4.23761719 3.73726562 3.78773438 2.92578125 3.32421875 C1 2 1 2 0 0 Z " fill="#9CDEF0" transform="translate(143,134)"/>
<path d="M0 0 C0 0.66 0 1.32 0 2 C-3.52679099 4.35119399 -5.02879485 4.21443452 -9.1875 4.125 C-10.27417969 4.10695313 -11.36085937 4.08890625 -12.48046875 4.0703125 C-13.72763672 4.03550781 -13.72763672 4.03550781 -15 4 C-15 3.67 -15 3.34 -15 3 C-14.22914063 2.86722656 -13.45828125 2.73445313 -12.6640625 2.59765625 C-11.66117188 2.42105469 -10.65828125 2.24445313 -9.625 2.0625 C-8.62726563 1.88847656 -7.62953125 1.71445313 -6.6015625 1.53515625 C-4.17911891 1.03684578 -2.44449381 0 0 0 Z " fill="#AAE0F3" transform="translate(179,117)"/>
<path d="M0 0 C0.88336837 2.4667645 1.1312406 3.63859372 0.22265625 6.140625 C-0.16019531 6.83671875 -0.54304687 7.5328125 -0.9375 8.25 C-1.31777344 8.95640625 -1.69804687 9.6628125 -2.08984375 10.390625 C-2.39019531 10.92171875 -2.69054687 11.4528125 -3 12 C-3.88336837 9.5332355 -4.1312406 8.36140628 -3.22265625 5.859375 C-2.83980469 5.16328125 -2.45695313 4.4671875 -2.0625 3.75 C-1.68222656 3.04359375 -1.30195313 2.3371875 -0.91015625 1.609375 C-0.60980469 1.07828125 -0.30945313 0.5471875 0 0 Z " fill="#A7F1DD" transform="translate(132,32)"/>
<path d="M0 0 C1 4 1 4 0 6 C-2.5625 6.625 -2.5625 6.625 -5 7 C-3.35 4.69 -1.7 2.38 0 0 Z " fill="#8CD5F1" transform="translate(184,110)"/>
<path d="M0 0 C2 1 2 1 2 1 Z " fill="#E0DEDF" transform="translate(84,131)"/>
</svg>
