<?xml version="1.0" encoding="UTF-8"?>
<svg version="1.1" xmlns="http://www.w3.org/2000/svg" width="342" height="226">
<path d="M0 0 C7.56493383 6.85869226 12.29305667 14.69381524 13.44140625 24.9375 C13.78626771 32.31735975 12.97427416 38.83632941 9.97265625 45.66796875 C8.59180807 48.97867704 7.50958513 51.61393271 8.7421875 55.09765625 C9.11601562 55.74605469 9.48984375 56.39445312 9.875 57.0625 C14.4308106 65.10685088 14.37035191 75.59233326 12.12890625 84.4375 C8.05791185 94.90195773 0.84324802 102.69063044 -8.984375 108.1171875 C-19.10980506 112.55196888 -29.85519204 111.72666415 -40 108 C-42.85014944 106.55077147 -45.41685257 104.87811407 -48 103 C-48.86625 102.4225 -49.7325 101.845 -50.625 101.25 C-58.02575315 94.23876017 -62.04082902 85.714937 -62.44189453 75.62109375 C-62.46106934 74.85925781 -62.48024414 74.09742188 -62.5 73.3125 C-62.53077637 72.57515625 -62.56155273 71.8378125 -62.59326172 71.078125 C-62.59415962 67.12017469 -62.1548438 65.20511427 -59.75 62.01953125 C-56.22184866 59.42854511 -54.38884225 59.27426175 -50.15625 59.5 C-46.70628222 60.29999253 -45.09072004 62.25592995 -43 65 C-41.1153457 68.7693086 -41.29369952 73.36172996 -40.890625 77.51953125 C-39.6079185 82.53221325 -36.66899381 84.61711941 -32.8125 87.8125 C-28.55884044 89.60848959 -24.55022205 89.56148573 -20 89 C-16.63121229 87.69280737 -16.63121229 87.69280737 -14 86 C-13.01 85.67 -12.02 85.34 -11 85 C-9.82917122 82.07085835 -9.82917122 82.07085835 -9 79 C-8.67 78.34 -8.34 77.68 -8 77 C-7.72744769 71.70416743 -7.72744769 71.70416743 -8.875 66.625 C-9 64 -9 64 -6.5078125 60.95703125 C-5.39490558 59.89326222 -4.26652913 58.84549448 -3.125 57.8125 C0.93380013 54.29648653 0.93380013 54.29648653 4 50 C3.34 50 2.68 50 2 50 C0.4140625 48.390625 0.4140625 48.390625 -1.375 46.25 C-3.34777187 43.9016586 -5.1858625 41.83737031 -7.5 39.8125 C-7.995 39.214375 -8.49 38.61625 -9 38 C-8.75 35.75 -8.75 35.75 -8 33 C-7.3279495 26.16748661 -8.68660527 22.34860947 -13 17 C-17.26331916 13.11285606 -21.23181135 12.76163934 -26.7890625 12.8515625 C-31.15107626 13.14441855 -33.40019668 14.48389016 -36.6875 17.3125 C-40.29076053 21.50007304 -41.17611965 25.0537382 -41.375 30.5 C-41.72054685 35.16174119 -42.41923468 37.7447588 -46 41 C-48.27248238 42.13624119 -49.78302764 42.26446843 -52.3125 42.375 C-53.07175781 42.42398438 -53.83101562 42.47296875 -54.61328125 42.5234375 C-58.34507982 41.70500704 -59.73347126 40.0207221 -62 37 C-62.48422706 34.0314776 -62.67143073 31.75720649 -62.5625 28.8125 C-62.54517822 28.05582031 -62.52785645 27.29914063 -62.51000977 26.51953125 C-62.07832287 16.25570857 -58.16478885 8.36224366 -51 1 C-35.91603821 -11.42527788 -15.44470968 -12.36108434 0 0 Z " fill="#53ACCC" transform="translate(190,61)"/>
<path d="M0 0 C5.30714589 0.15609253 8.42526657 3.44915121 12 7 C13.52653855 8.73240762 14.99986775 10.49983961 16.46875 12.28125 C18.03710099 14.04164397 19.68228889 15.50118557 21.5 17 C24.54201829 19.50833087 26.96317414 22.24198462 29.46484375 25.27734375 C31.55452685 27.62225532 33.92077344 29.53360448 36.33984375 31.52734375 C37.95880187 32.96345484 39.27555797 34.4371399 40.625 36.125 C42.88470916 38.86043741 45.16155199 40.89143862 48 43 C50.15456969 40.84543031 49.26026626 35.9288373 49.31640625 32.93359375 C49.33718735 32.02497086 49.35796844 31.11634796 49.37937927 30.18019104 C49.44497672 27.26604054 49.5038068 24.35179696 49.5625 21.4375 C49.60567554 19.46678709 49.64928951 17.49608374 49.69335938 15.52539062 C49.80066843 10.68369012 49.90190675 5.84189563 50 1 C52.97922593 0.97316013 55.95821295 0.95323963 58.9375 0.9375 C60.21270508 0.92493164 60.21270508 0.92493164 61.51367188 0.91210938 C62.32255859 0.90888672 63.13144531 0.90566406 63.96484375 0.90234375 C64.7137085 0.89710693 65.46257324 0.89187012 66.23413086 0.88647461 C68 1 68 1 69 2 C69.10041457 4.61150288 69.13617057 7.19658365 69.12939453 9.80859375 C69.13202301 11.03535324 69.13202301 11.03535324 69.13470459 12.28689575 C69.13912385 15.0037851 69.13618486 17.72060993 69.1328125 20.4375 C69.13348552 22.31697604 69.13445553 24.19645199 69.13571167 26.07592773 C69.13718874 30.02035346 69.13503379 33.96475658 69.13037109 37.90917969 C69.1246738 42.97712503 69.12795276 48.04501742 69.13394356 53.11296082 C69.13754892 56.99556887 69.1364107 60.87816428 69.13381577 64.76077271 C69.13314643 66.62997443 69.13397516 68.49917728 69.13629532 70.36837769 C69.13882143 72.97608504 69.13498184 75.58370541 69.12939453 78.19140625 C69.13141876 78.97170197 69.13344299 79.75199768 69.13552856 80.55593872 C69.11426253 85.88573747 69.11426253 85.88573747 68 87 C65.31560716 87.55266911 63.63992931 87.41766948 61.32421875 85.90625 C57.64041695 82.83505382 54.5746136 79.40963777 51.53125 75.71875 C49.96289901 73.95835603 48.31771111 72.49881443 46.5 71 C43.45655948 68.49049642 41.03476099 65.7549229 38.53125 62.71875 C36.46190708 60.39601815 34.11847682 58.50973364 31.72265625 56.53515625 C29.37508147 54.44309981 27.46195452 52.07324461 25.46484375 49.65234375 C23.85096657 47.74858008 23.85096657 47.74858008 21 45.5 C18.66381815 43.55318179 16.96569245 41.86955291 15.0625 39.5625 C13.03072147 37.10632909 10.95965912 35.02719158 8.5 33 C-0.55402908 25.34145674 -0.55402908 25.34145674 -1.49755859 20.38769531 C-1.62518163 17.44479893 -1.57403466 14.56722581 -1.4375 11.625 C-1.41880859 10.61566406 -1.40011719 9.60632813 -1.38085938 8.56640625 C-1.1973775 1.1973775 -1.1973775 1.1973775 0 0 Z " fill="#F3F3F3" transform="translate(48,68)"/>
<path d="M0 0 C4.47696562 0.13055986 7.78529696 0.3163988 11.09692383 3.52514648 C13.31697364 6.23681094 15.09799363 9.18413642 16.80151367 12.2409668 C18.27252672 14.76829627 20.07976855 16.98686804 21.91723633 19.25561523 C22.47668945 19.97362305 23.03614258 20.69163086 23.61254883 21.43139648 C24.19649414 22.17969727 24.19649414 22.17969727 24.79223633 22.94311523 C28.22850838 21.5205675 29.83791263 19.91088953 31.95629883 16.88061523 C32.5209082 16.08397461 33.08551758 15.28733398 33.66723633 14.46655273 C34.24473633 13.63381836 34.82223633 12.80108398 35.41723633 11.94311523 C36.5746284 10.29625339 37.73341925 8.65037345 38.89379883 7.00561523 C39.40249512 6.2747168 39.91119141 5.54381836 40.43530273 4.79077148 C41.79223633 2.94311523 41.79223633 2.94311523 43.79223633 0.94311523 C45.83935547 0.70019531 45.83935547 0.70019531 48.32739258 0.71264648 C49.2187793 0.71458008 50.11016602 0.71651367 51.02856445 0.71850586 C51.96120117 0.73075195 52.89383789 0.74299805 53.85473633 0.75561523 C54.79124023 0.75625977 55.72774414 0.7569043 56.69262695 0.75756836 C63.65204409 0.802923 63.65204409 0.802923 64.79223633 1.94311523 C65.10939934 4.86696179 65.07851329 6.46896902 63.54223633 9.01342773 C62.67598633 10.03049805 62.67598633 10.03049805 61.79223633 11.06811523 C58.36099964 15.24198431 55.14234294 19.50800088 51.99536133 23.90014648 C50.36520437 26.15172852 48.71175711 28.37025322 47.02661133 30.57983398 C46.09418147 31.82582433 45.16188813 33.07191685 44.22973633 34.31811523 C43.54850708 35.19246216 43.54850708 35.19246216 42.85351562 36.08447266 C40.95206505 38.65667465 39.78952661 40.3325247 39.80395508 43.58374023 C40.93492942 46.28377385 42.25767558 48.09678946 44.16723633 50.31811523 C49.23046394 56.40853265 53.87185471 62.76186556 58.50561523 69.18041992 C59.67770735 70.78620837 60.87992578 72.36989697 62.08520508 73.95092773 C62.73102539 74.81459961 63.3768457 75.67827148 64.04223633 76.56811523 C64.60426758 77.30288086 65.16629883 78.03764648 65.74536133 78.79467773 C67.10306694 81.58101388 66.72318413 83.04133113 65.79223633 85.94311523 C63.63150496 88.1038466 58.96259622 87.22095768 55.97973633 87.25561523 C54.74900391 87.29912109 54.74900391 87.29912109 53.4934082 87.34350586 C47.42537055 87.40748355 47.42537055 87.40748355 44.43286133 85.21264648 C43.89145508 84.46370117 43.35004883 83.71475586 42.79223633 82.94311523 C42.23665039 82.22897461 41.68106445 81.51483398 41.10864258 80.77905273 C40.52985352 79.96694336 39.95106445 79.15483398 39.35473633 78.31811523 C38.65864258 77.34874023 37.96254883 76.37936523 37.24536133 75.38061523 C36.42754645 74.23485795 35.60984692 73.08901832 34.79223633 71.94311523 C27.7763874 62.13436338 20.67889965 52.41099918 13.32348633 42.85351562 C8.1432867 36.11846645 3.15193056 29.2602761 -1.77416992 22.33764648 C-2.21929932 21.71269287 -2.66442871 21.08773926 -3.12304688 20.44384766 C-3.98653396 19.23035374 -4.84845721 18.01574488 -5.70849609 16.79980469 C-7.56106426 14.19191533 -9.44053666 11.6628294 -11.48510742 9.20092773 C-13.20776367 6.94311523 -13.20776367 6.94311523 -13.52026367 4.19311523 C-12.7421761 -1.40911529 -4.50936255 0.11087619 0 0 Z " fill="#EEEEEF" transform="translate(222.207763671875,69.056884765625)"/>
<path d="M0 0 C7.44463432 6.74962357 12.63735773 14.84313219 13.40625 25.04296875 C13.67710108 32.08509692 13.46481884 38.71199543 10 45 C8.515 45.495 8.515 45.495 7 46 C6.26676204 48.01508358 6.26676204 48.01508358 6 50 C2 50 2 50 0.21875 48.390625 C-0.3484375 47.68421875 -0.915625 46.9778125 -1.5 46.25 C-3.43549397 43.8765171 -5.18698048 41.83639208 -7.5 39.8125 C-7.995 39.214375 -8.49 38.61625 -9 38 C-8.75 35.75 -8.75 35.75 -8 33 C-7.3279495 26.16748661 -8.68660527 22.34860947 -13 17 C-17.26331916 13.11285606 -21.23181135 12.76163934 -26.7890625 12.8515625 C-31.15107626 13.14441855 -33.40019668 14.48389016 -36.6875 17.3125 C-40.29076053 21.50007304 -41.17611965 25.0537382 -41.375 30.5 C-41.72054685 35.16174119 -42.41923468 37.7447588 -46 41 C-48.27248238 42.13624119 -49.78302764 42.26446843 -52.3125 42.375 C-53.07175781 42.42398438 -53.83101562 42.47296875 -54.61328125 42.5234375 C-58.34507982 41.70500704 -59.73347126 40.0207221 -62 37 C-62.48422706 34.0314776 -62.67143073 31.75720649 -62.5625 28.8125 C-62.54517822 28.05582031 -62.52785645 27.29914063 -62.51000977 26.51953125 C-62.07832287 16.25570857 -58.16478885 8.36224366 -51 1 C-35.91603821 -11.42527788 -15.44470968 -12.36108434 0 0 Z " fill="#60C5BA" transform="translate(190,61)"/>
<path d="M0 0 C6.96092454 1.14481625 12.65920286 6.77130287 16.68603516 12.27294922 C20.97583515 21.17615731 19.25639341 34.44318643 18 44 C16.1144747 45.8855253 13.42231169 45.13246689 10.91796875 45.13671875 C10.12003906 45.13285156 9.32210937 45.12898438 8.5 45.125 C7.70207031 45.12886719 6.90414062 45.13273437 6.08203125 45.13671875 C0.12660767 45.12660767 0.12660767 45.12660767 -1 44 C-1.09785341 42.65455673 -1.12797985 41.30407437 -1.12939453 39.95507812 C-1.13254669 39.09748901 -1.13569885 38.2398999 -1.13894653 37.35632324 C-1.1369223 36.42404907 -1.13489807 35.4917749 -1.1328125 34.53125 C-1.13376923 33.58060669 -1.13472595 32.62996338 -1.13571167 31.6505127 C-1.13639357 29.63631118 -1.13453862 27.62210748 -1.13037109 25.60791016 C-1.12502298 22.51329645 -1.13031577 19.4188279 -1.13671875 16.32421875 C-1.13605797 14.37239551 -1.13477681 12.42057236 -1.1328125 10.46875 C-1.13483673 9.53647583 -1.13686096 8.60420166 -1.13894653 7.64367676 C-1.13579437 6.78608765 -1.13264221 5.92849854 -1.12939453 5.04492188 C-1.12859894 4.28626831 -1.12780334 3.52761475 -1.12698364 2.74597168 C-1 1 -1 1 0 0 Z " fill="#F0F0F1" transform="translate(48,110)"/>
<path d="M0 0 C4.1648843 0.7749848 5.08731829 2.31951618 7.4609375 5.76171875 C8.14929688 6.72464844 8.83765625 7.68757812 9.546875 8.6796875 C11.19157596 11.77289412 11.72549011 13.15233896 11.0859375 16.57421875 C9.51171875 19.0390625 9.51171875 19.0390625 7.3984375 21.51171875 C6.71394531 22.32511719 6.02945313 23.13851562 5.32421875 23.9765625 C4.21626953 25.26240234 4.21626953 25.26240234 3.0859375 26.57421875 C2.36148438 27.65832031 1.63703125 28.74242187 0.890625 29.859375 C-2.51082086 33.1518609 -4.09114478 33.25901435 -8.65429688 33.19921875 C-9.46189453 33.15796875 -10.26949219 33.11671875 -11.1015625 33.07421875 C-12.33036133 33.05875 -12.33036133 33.05875 -13.58398438 33.04296875 C-19.60386068 32.88442057 -19.60386068 32.88442057 -21.9140625 30.57421875 C-21.69046408 25.54325426 -20.0441002 23.36012466 -16.9140625 19.57421875 C-15.03348214 17.07273835 -13.19446381 14.54104484 -11.3515625 12.01171875 C-8.52256903 8.13747468 -8.52256903 8.13747468 -7.10498047 6.22998047 C-5.80869009 4.47848639 -5.80869009 4.47848639 -4.44921875 2.109375 C-2.9140625 0.57421875 -2.9140625 0.57421875 0 0 Z " fill="#E8E8E8" transform="translate(228.9140625,123.42578125)"/>
<path d="M0 0 C2.93453261 0.36681658 3.86437246 0.86437246 6 3 C6.66 2.34 7.32 1.68 8 1 C11.81996515 1.3015762 14.24031174 2.35675429 17 5 C17.390625 7.48046875 17.390625 7.48046875 17.25 10.1875 C17.21390625 11.08855469 17.1778125 11.98960938 17.140625 12.91796875 C17.07101563 13.94857422 17.07101563 13.94857422 17 15 C15.8944811 14.06409496 14.79064547 13.12620142 13.6875 12.1875 C13.07261719 11.66542969 12.45773438 11.14335938 11.82421875 10.60546875 C10.14575321 9.12827531 8.56117966 7.59960869 7 6 C6.13375 6.495 6.13375 6.495 5.25 7 C3 8 3 8 -1 8 C-1.66 7.34 -2.32 6.68 -3 6 C-2.63318342 3.06546739 -2.13562754 2.13562754 0 0 Z " fill="#4A9987" transform="translate(161,108)"/>
<path d="M0 0 C0.99 0.66 1.98 1.32 3 2 C3 2.66 3 3.32 3 4 C4.32 4.66 5.64 5.32 7 6 C5.96917019 9.09248942 5.19309092 9.89906611 2.25 11.4375 C-1.82785178 12.14328204 -3.54552699 11.13848329 -7 9 C-6.82374165 6.62051228 -6.30280227 5.29774151 -4.59765625 3.62109375 C-3.09350908 2.37884514 -1.54870149 1.18623944 0 0 Z " fill="#59BAA2" transform="translate(179,100)"/>
<path d="M0 0 C0 4 0 4 -1.96875 6.359375 C-2.8040625 7.14828125 -3.639375 7.9371875 -4.5 8.75 C-5.3353125 9.54921875 -6.170625 10.3484375 -7.03125 11.171875 C-7.6809375 11.77515625 -8.330625 12.3784375 -9 13 C-9.66 12.67 -10.32 12.34 -11 12 C-11.35472107 8.9257507 -11.51033687 6.06202123 -11 3 C-7.3511963 -0.5639478 -4.88831651 -1.72528818 0 0 Z " fill="#5EC6AC" transform="translate(190,110)"/>
<path d="M0 0 C1.99954746 -0.04254356 4.00041636 -0.04080783 6 0 C7 1 7 1 7.09765625 3.28515625 C7.08605469 4.20167969 7.07445312 5.11820312 7.0625 6.0625 C7.05347656 6.98160156 7.04445312 7.90070313 7.03515625 8.84765625 C7.02355469 9.55792969 7.01195312 10.26820312 7 11 C0.13785558 5.9059081 0.13785558 5.9059081 -0.4375 2.125 C-0.2209375 1.073125 -0.2209375 1.073125 0 0 Z " fill="#5DC5AB" transform="translate(171,112)"/>
<path d="M0 0 C2.0625 0.4375 2.0625 0.4375 4 1 C4 2.98 4 4.96 4 7 C2.68 7 1.36 7 0 7 C-0.66 6.34 -1.32 5.68 -2 5 C-1.46428571 1.46428571 -1.46428571 1.46428571 0 0 Z " fill="#5CC1A8" transform="translate(160,109)"/>
<path d="M0 0 C0.66 0.33 1.32 0.66 2 1 C-1.96 4.96 -5.92 8.92 -10 13 C-10 8.83248505 -7.76127698 6.85829482 -5 4 C-3.36927384 2.62294236 -1.7133562 1.27277889 0 0 Z " fill="#489476" transform="translate(144,58)"/>
<path d="M0 0 C0.66 0.33 1.32 0.66 2 1 C2 3.97 2 6.94 2 10 C1.01 10 0.02 10 -1 10 C-1.02689216 8.52093108 -1.04634621 7.04172517 -1.0625 5.5625 C-1.07410156 4.73878906 -1.08570313 3.91507812 -1.09765625 3.06640625 C-1 1 -1 1 0 0 Z " fill="#3C7C70" transform="translate(180,112)"/>
</svg>
